<?xml version="1.0" encoding="utf-8"?>
<svg xmlns="http://www.w3.org/2000/svg" xmlns:xlink="http://www.w3.org/1999/xlink" width="600" height="400" viewBox="0 0 2400 1600">
<defs>
  <clipPath id="clip740">
    <rect x="0" y="0" width="2400" height="1600"/>
  </clipPath>
</defs>
<path clip-path="url(#clip740)" d="M0 1600 L2400 1600 L2400 8.88178e-14 L0 8.88178e-14  Z" fill="#ffffff" fill-rule="evenodd" fill-opacity="1"/>
<defs>
  <clipPath id="clip741">
    <rect x="480" y="0" width="1681" height="1600"/>
  </clipPath>
</defs>
<path clip-path="url(#clip740)" d="M265.445 1552.76 L2352.76 1552.76 L2352.76 176.82 L265.445 176.82  Z" fill="#ffffff" fill-rule="evenodd" fill-opacity="1"/>
<defs>
  <clipPath id="clip742">
    <rect x="265" y="176" width="2088" height="1377"/>
  </clipPath>
</defs>
<polyline clip-path="url(#clip742)" style="stroke:#000000; stroke-linecap:round; stroke-linejoin:round; stroke-width:2; stroke-opacity:0.1; fill:none" points="324.52,176.82 324.52,1552.76 "/>
<polyline clip-path="url(#clip742)" style="stroke:#000000; stroke-linecap:round; stroke-linejoin:round; stroke-width:2; stroke-opacity:0.1; fill:none" points="830.868,176.82 830.868,1552.76 "/>
<polyline clip-path="url(#clip742)" style="stroke:#000000; stroke-linecap:round; stroke-linejoin:round; stroke-width:2; stroke-opacity:0.1; fill:none" points="1337.22,176.82 1337.22,1552.76 "/>
<polyline clip-path="url(#clip742)" style="stroke:#000000; stroke-linecap:round; stroke-linejoin:round; stroke-width:2; stroke-opacity:0.1; fill:none" points="1843.56,176.82 1843.56,1552.76 "/>
<polyline clip-path="url(#clip742)" style="stroke:#000000; stroke-linecap:round; stroke-linejoin:round; stroke-width:2; stroke-opacity:0.1; fill:none" points="2349.91,176.82 2349.91,1552.76 "/>
<polyline clip-path="url(#clip742)" style="stroke:#000000; stroke-linecap:round; stroke-linejoin:round; stroke-width:2; stroke-opacity:0.1; fill:none" points="265.445,214.613 2352.76,214.613 "/>
<polyline clip-path="url(#clip742)" style="stroke:#000000; stroke-linecap:round; stroke-linejoin:round; stroke-width:2; stroke-opacity:0.1; fill:none" points="265.445,447.365 2352.76,447.365 "/>
<polyline clip-path="url(#clip742)" style="stroke:#000000; stroke-linecap:round; stroke-linejoin:round; stroke-width:2; stroke-opacity:0.1; fill:none" points="265.445,680.117 2352.76,680.117 "/>
<polyline clip-path="url(#clip742)" style="stroke:#000000; stroke-linecap:round; stroke-linejoin:round; stroke-width:2; stroke-opacity:0.1; fill:none" points="265.445,912.869 2352.76,912.869 "/>
<polyline clip-path="url(#clip742)" style="stroke:#000000; stroke-linecap:round; stroke-linejoin:round; stroke-width:2; stroke-opacity:0.1; fill:none" points="265.445,1145.62 2352.76,1145.62 "/>
<polyline clip-path="url(#clip742)" style="stroke:#000000; stroke-linecap:round; stroke-linejoin:round; stroke-width:2; stroke-opacity:0.1; fill:none" points="265.445,1378.37 2352.76,1378.37 "/>
<polyline clip-path="url(#clip740)" style="stroke:#000000; stroke-linecap:round; stroke-linejoin:round; stroke-width:4; stroke-opacity:1; fill:none" points="265.445,176.82 2352.76,176.82 "/>
<polyline clip-path="url(#clip740)" style="stroke:#000000; stroke-linecap:round; stroke-linejoin:round; stroke-width:4; stroke-opacity:1; fill:none" points="324.52,176.82 324.52,195.718 "/>
<polyline clip-path="url(#clip740)" style="stroke:#000000; stroke-linecap:round; stroke-linejoin:round; stroke-width:4; stroke-opacity:1; fill:none" points="830.868,176.82 830.868,195.718 "/>
<polyline clip-path="url(#clip740)" style="stroke:#000000; stroke-linecap:round; stroke-linejoin:round; stroke-width:4; stroke-opacity:1; fill:none" points="1337.22,176.82 1337.22,195.718 "/>
<polyline clip-path="url(#clip740)" style="stroke:#000000; stroke-linecap:round; stroke-linejoin:round; stroke-width:4; stroke-opacity:1; fill:none" points="1843.56,176.82 1843.56,195.718 "/>
<polyline clip-path="url(#clip740)" style="stroke:#000000; stroke-linecap:round; stroke-linejoin:round; stroke-width:4; stroke-opacity:1; fill:none" points="2349.91,176.82 2349.91,195.718 "/>
<path clip-path="url(#clip740)" d="M324.52 117.499 Q320.908 117.499 319.08 121.064 Q317.274 124.605 317.274 131.735 Q317.274 138.841 319.08 142.406 Q320.908 145.948 324.52 145.948 Q328.154 145.948 329.959 142.406 Q331.788 138.841 331.788 131.735 Q331.788 124.605 329.959 121.064 Q328.154 117.499 324.52 117.499 M324.52 113.795 Q330.33 113.795 333.385 118.402 Q336.464 122.985 336.464 131.735 Q336.464 140.462 333.385 145.068 Q330.33 149.651 324.52 149.651 Q318.709 149.651 315.631 145.068 Q312.575 140.462 312.575 131.735 Q312.575 122.985 315.631 118.402 Q318.709 113.795 324.52 113.795 Z" fill="#000000" fill-rule="nonzero" fill-opacity="1" /><path clip-path="url(#clip740)" d="M794.56 145.045 L810.88 145.045 L810.88 148.98 L788.935 148.98 L788.935 145.045 Q791.597 142.29 796.181 137.661 Q800.787 133.008 801.968 131.665 Q804.213 129.142 805.092 127.406 Q805.995 125.647 805.995 123.957 Q805.995 121.203 804.051 119.466 Q802.13 117.73 799.028 117.73 Q796.829 117.73 794.375 118.494 Q791.944 119.258 789.167 120.809 L789.167 116.087 Q791.991 114.953 794.444 114.374 Q796.898 113.795 798.935 113.795 Q804.305 113.795 807.5 116.48 Q810.694 119.166 810.694 123.656 Q810.694 125.786 809.884 127.707 Q809.097 129.605 806.991 132.198 Q806.412 132.869 803.31 136.087 Q800.208 139.281 794.56 145.045 Z" fill="#000000" fill-rule="nonzero" fill-opacity="1" /><path clip-path="url(#clip740)" d="M820.741 114.42 L839.097 114.42 L839.097 118.355 L825.023 118.355 L825.023 126.827 Q826.041 126.48 827.06 126.318 Q828.078 126.133 829.097 126.133 Q834.884 126.133 838.264 129.304 Q841.643 132.476 841.643 137.892 Q841.643 143.471 838.171 146.573 Q834.699 149.651 828.379 149.651 Q826.203 149.651 823.935 149.281 Q821.69 148.911 819.282 148.17 L819.282 143.471 Q821.366 144.605 823.588 145.161 Q825.81 145.716 828.287 145.716 Q832.291 145.716 834.629 143.61 Q836.967 141.503 836.967 137.892 Q836.967 134.281 834.629 132.175 Q832.291 130.068 828.287 130.068 Q826.412 130.068 824.537 130.485 Q822.685 130.902 820.741 131.781 L820.741 114.42 Z" fill="#000000" fill-rule="nonzero" fill-opacity="1" /><path clip-path="url(#clip740)" d="M860.856 117.499 Q857.245 117.499 855.416 121.064 Q853.611 124.605 853.611 131.735 Q853.611 138.841 855.416 142.406 Q857.245 145.948 860.856 145.948 Q864.49 145.948 866.296 142.406 Q868.125 138.841 868.125 131.735 Q868.125 124.605 866.296 121.064 Q864.49 117.499 860.856 117.499 M860.856 113.795 Q866.666 113.795 869.722 118.402 Q872.8 122.985 872.8 131.735 Q872.8 140.462 869.722 145.068 Q866.666 149.651 860.856 149.651 Q855.046 149.651 851.967 145.068 Q848.912 140.462 848.912 131.735 Q848.912 122.985 851.967 118.402 Q855.046 113.795 860.856 113.795 Z" fill="#000000" fill-rule="nonzero" fill-opacity="1" /><path clip-path="url(#clip740)" d="M1296.83 114.42 L1315.19 114.42 L1315.19 118.355 L1301.12 118.355 L1301.12 126.827 Q1302.14 126.48 1303.15 126.318 Q1304.17 126.133 1305.19 126.133 Q1310.98 126.133 1314.36 129.304 Q1317.74 132.476 1317.74 137.892 Q1317.74 143.471 1314.26 146.573 Q1310.79 149.651 1304.47 149.651 Q1302.3 149.651 1300.03 149.281 Q1297.78 148.911 1295.38 148.17 L1295.38 143.471 Q1297.46 144.605 1299.68 145.161 Q1301.9 145.716 1304.38 145.716 Q1308.39 145.716 1310.72 143.61 Q1313.06 141.503 1313.06 137.892 Q1313.06 134.281 1310.72 132.175 Q1308.39 130.068 1304.38 130.068 Q1302.51 130.068 1300.63 130.485 Q1298.78 130.902 1296.83 131.781 L1296.83 114.42 Z" fill="#000000" fill-rule="nonzero" fill-opacity="1" /><path clip-path="url(#clip740)" d="M1336.95 117.499 Q1333.34 117.499 1331.51 121.064 Q1329.7 124.605 1329.7 131.735 Q1329.7 138.841 1331.51 142.406 Q1333.34 145.948 1336.95 145.948 Q1340.58 145.948 1342.39 142.406 Q1344.22 138.841 1344.22 131.735 Q1344.22 124.605 1342.39 121.064 Q1340.58 117.499 1336.95 117.499 M1336.95 113.795 Q1342.76 113.795 1345.82 118.402 Q1348.89 122.985 1348.89 131.735 Q1348.89 140.462 1345.82 145.068 Q1342.76 149.651 1336.95 149.651 Q1331.14 149.651 1328.06 145.068 Q1325.01 140.462 1325.01 131.735 Q1325.01 122.985 1328.06 118.402 Q1331.14 113.795 1336.95 113.795 Z" fill="#000000" fill-rule="nonzero" fill-opacity="1" /><path clip-path="url(#clip740)" d="M1367.11 117.499 Q1363.5 117.499 1361.67 121.064 Q1359.87 124.605 1359.87 131.735 Q1359.87 138.841 1361.67 142.406 Q1363.5 145.948 1367.11 145.948 Q1370.75 145.948 1372.55 142.406 Q1374.38 138.841 1374.38 131.735 Q1374.38 124.605 1372.55 121.064 Q1370.75 117.499 1367.11 117.499 M1367.11 113.795 Q1372.92 113.795 1375.98 118.402 Q1379.06 122.985 1379.06 131.735 Q1379.06 140.462 1375.98 145.068 Q1372.92 149.651 1367.11 149.651 Q1361.3 149.651 1358.22 145.068 Q1355.17 140.462 1355.17 131.735 Q1355.17 122.985 1358.22 118.402 Q1361.3 113.795 1367.11 113.795 Z" fill="#000000" fill-rule="nonzero" fill-opacity="1" /><path clip-path="url(#clip740)" d="M1801.84 114.42 L1824.06 114.42 L1824.06 116.411 L1811.52 148.98 L1806.63 148.98 L1818.44 118.355 L1801.84 118.355 L1801.84 114.42 Z" fill="#000000" fill-rule="nonzero" fill-opacity="1" /><path clip-path="url(#clip740)" d="M1833.23 114.42 L1851.59 114.42 L1851.59 118.355 L1837.51 118.355 L1837.51 126.827 Q1838.53 126.48 1839.55 126.318 Q1840.57 126.133 1841.59 126.133 Q1847.37 126.133 1850.75 129.304 Q1854.13 132.476 1854.13 137.892 Q1854.13 143.471 1850.66 146.573 Q1847.19 149.651 1840.87 149.651 Q1838.69 149.651 1836.42 149.281 Q1834.18 148.911 1831.77 148.17 L1831.77 143.471 Q1833.85 144.605 1836.08 145.161 Q1838.3 145.716 1840.77 145.716 Q1844.78 145.716 1847.12 143.61 Q1849.46 141.503 1849.46 137.892 Q1849.46 134.281 1847.12 132.175 Q1844.78 130.068 1840.77 130.068 Q1838.9 130.068 1837.02 130.485 Q1835.17 130.902 1833.23 131.781 L1833.23 114.42 Z" fill="#000000" fill-rule="nonzero" fill-opacity="1" /><path clip-path="url(#clip740)" d="M1873.34 117.499 Q1869.73 117.499 1867.9 121.064 Q1866.1 124.605 1866.1 131.735 Q1866.1 138.841 1867.9 142.406 Q1869.73 145.948 1873.34 145.948 Q1876.98 145.948 1878.78 142.406 Q1880.61 138.841 1880.61 131.735 Q1880.61 124.605 1878.78 121.064 Q1876.98 117.499 1873.34 117.499 M1873.34 113.795 Q1879.15 113.795 1882.21 118.402 Q1885.29 122.985 1885.29 131.735 Q1885.29 140.462 1882.21 145.068 Q1879.15 149.651 1873.34 149.651 Q1867.53 149.651 1864.46 145.068 Q1861.4 140.462 1861.4 131.735 Q1861.4 122.985 1864.46 118.402 Q1867.53 113.795 1873.34 113.795 Z" fill="#000000" fill-rule="nonzero" fill-opacity="1" /><path clip-path="url(#clip740)" d="M2294.44 145.045 L2302.08 145.045 L2302.08 118.679 L2293.77 120.346 L2293.77 116.087 L2302.03 114.42 L2306.71 114.42 L2306.71 145.045 L2314.35 145.045 L2314.35 148.98 L2294.44 148.98 L2294.44 145.045 Z" fill="#000000" fill-rule="nonzero" fill-opacity="1" /><path clip-path="url(#clip740)" d="M2333.79 117.499 Q2330.18 117.499 2328.35 121.064 Q2326.54 124.605 2326.54 131.735 Q2326.54 138.841 2328.35 142.406 Q2330.18 145.948 2333.79 145.948 Q2337.42 145.948 2339.23 142.406 Q2341.06 138.841 2341.06 131.735 Q2341.06 124.605 2339.23 121.064 Q2337.42 117.499 2333.79 117.499 M2333.79 113.795 Q2339.6 113.795 2342.66 118.402 Q2345.73 122.985 2345.73 131.735 Q2345.73 140.462 2342.66 145.068 Q2339.6 149.651 2333.79 149.651 Q2327.98 149.651 2324.9 145.068 Q2321.85 140.462 2321.85 131.735 Q2321.85 122.985 2324.9 118.402 Q2327.98 113.795 2333.79 113.795 Z" fill="#000000" fill-rule="nonzero" fill-opacity="1" /><path clip-path="url(#clip740)" d="M2363.95 117.499 Q2360.34 117.499 2358.51 121.064 Q2356.71 124.605 2356.71 131.735 Q2356.71 138.841 2358.51 142.406 Q2360.34 145.948 2363.95 145.948 Q2367.59 145.948 2369.39 142.406 Q2371.22 138.841 2371.22 131.735 Q2371.22 124.605 2369.39 121.064 Q2367.59 117.499 2363.95 117.499 M2363.95 113.795 Q2369.76 113.795 2372.82 118.402 Q2375.9 122.985 2375.9 131.735 Q2375.9 140.462 2372.82 145.068 Q2369.76 149.651 2363.95 149.651 Q2358.14 149.651 2355.06 145.068 Q2352.01 140.462 2352.01 131.735 Q2352.01 122.985 2355.06 118.402 Q2358.14 113.795 2363.95 113.795 Z" fill="#000000" fill-rule="nonzero" fill-opacity="1" /><path clip-path="url(#clip740)" d="M2394.11 117.499 Q2390.5 117.499 2388.67 121.064 Q2386.87 124.605 2386.87 131.735 Q2386.87 138.841 2388.67 142.406 Q2390.5 145.948 2394.11 145.948 Q2397.75 145.948 2399.55 142.406 Q2401.38 138.841 2401.38 131.735 Q2401.38 124.605 2399.55 121.064 Q2397.75 117.499 2394.11 117.499 M2394.11 113.795 Q2399.92 113.795 2402.98 118.402 Q2406.06 122.985 2406.06 131.735 Q2406.06 140.462 2402.98 145.068 Q2399.92 149.651 2394.11 149.651 Q2388.3 149.651 2385.22 145.068 Q2382.17 140.462 2382.17 131.735 Q2382.17 122.985 2385.22 118.402 Q2388.3 113.795 2394.11 113.795 Z" fill="#000000" fill-rule="nonzero" fill-opacity="1" /><path clip-path="url(#clip740)" d="M1296.42 78.0343 Q1293.93 84.4 1291.58 86.3416 Q1289.22 88.2831 1285.28 88.2831 L1280.6 88.2831 L1280.6 83.3815 L1284.04 83.3815 Q1286.45 83.3815 1287.79 82.2357 Q1289.13 81.0899 1290.75 76.8248 L1291.8 74.1512 L1277.38 39.0762 L1283.59 39.0762 L1294.73 66.958 L1305.87 39.0762 L1312.08 39.0762 L1296.42 78.0343 Z" fill="#000000" fill-rule="nonzero" fill-opacity="1" /><path clip-path="url(#clip740)" d="M1340.82 44.5507 Q1339.83 43.9778 1338.65 43.7232 Q1337.51 43.4367 1336.11 43.4367 Q1331.14 43.4367 1328.47 46.6832 Q1325.83 49.8979 1325.83 55.9453 L1325.83 74.7242 L1319.94 74.7242 L1319.94 39.0762 L1325.83 39.0762 L1325.83 44.6144 Q1327.67 41.3679 1330.63 39.8083 Q1333.59 38.2168 1337.83 38.2168 Q1338.43 38.2168 1339.16 38.3123 Q1339.89 38.376 1340.79 38.5351 L1340.82 44.5507 Z" fill="#000000" fill-rule="nonzero" fill-opacity="1" /><polyline clip-path="url(#clip740)" style="stroke:#000000; stroke-linecap:round; stroke-linejoin:round; stroke-width:4; stroke-opacity:1; fill:none" points="265.445,176.82 265.445,1552.76 "/>
<polyline clip-path="url(#clip740)" style="stroke:#000000; stroke-linecap:round; stroke-linejoin:round; stroke-width:4; stroke-opacity:1; fill:none" points="265.445,214.613 284.342,214.613 "/>
<polyline clip-path="url(#clip740)" style="stroke:#000000; stroke-linecap:round; stroke-linejoin:round; stroke-width:4; stroke-opacity:1; fill:none" points="265.445,447.365 284.342,447.365 "/>
<polyline clip-path="url(#clip740)" style="stroke:#000000; stroke-linecap:round; stroke-linejoin:round; stroke-width:4; stroke-opacity:1; fill:none" points="265.445,680.117 284.342,680.117 "/>
<polyline clip-path="url(#clip740)" style="stroke:#000000; stroke-linecap:round; stroke-linejoin:round; stroke-width:4; stroke-opacity:1; fill:none" points="265.445,912.869 284.342,912.869 "/>
<polyline clip-path="url(#clip740)" style="stroke:#000000; stroke-linecap:round; stroke-linejoin:round; stroke-width:4; stroke-opacity:1; fill:none" points="265.445,1145.62 284.342,1145.62 "/>
<polyline clip-path="url(#clip740)" style="stroke:#000000; stroke-linecap:round; stroke-linejoin:round; stroke-width:4; stroke-opacity:1; fill:none" points="265.445,1378.37 284.342,1378.37 "/>
<path clip-path="url(#clip740)" d="M217.5 200.412 Q213.889 200.412 212.061 203.977 Q210.255 207.518 210.255 214.648 Q210.255 221.754 212.061 225.319 Q213.889 228.861 217.5 228.861 Q221.135 228.861 222.94 225.319 Q224.769 221.754 224.769 214.648 Q224.769 207.518 222.94 203.977 Q221.135 200.412 217.5 200.412 M217.5 196.708 Q223.31 196.708 226.366 201.315 Q229.445 205.898 229.445 214.648 Q229.445 223.375 226.366 227.981 Q223.31 232.565 217.5 232.565 Q211.69 232.565 208.612 227.981 Q205.556 223.375 205.556 214.648 Q205.556 205.898 208.612 201.315 Q211.69 196.708 217.5 196.708 Z" fill="#000000" fill-rule="nonzero" fill-opacity="1" /><path clip-path="url(#clip740)" d="M117.825 460.71 L125.464 460.71 L125.464 434.344 L117.154 436.011 L117.154 431.752 L125.418 430.085 L130.093 430.085 L130.093 460.71 L137.732 460.71 L137.732 464.645 L117.825 464.645 L117.825 460.71 Z" fill="#000000" fill-rule="nonzero" fill-opacity="1" /><path clip-path="url(#clip740)" d="M157.177 433.164 Q153.566 433.164 151.737 436.728 Q149.931 440.27 149.931 447.4 Q149.931 454.506 151.737 458.071 Q153.566 461.613 157.177 461.613 Q160.811 461.613 162.616 458.071 Q164.445 454.506 164.445 447.4 Q164.445 440.27 162.616 436.728 Q160.811 433.164 157.177 433.164 M157.177 429.46 Q162.987 429.46 166.042 434.066 Q169.121 438.65 169.121 447.4 Q169.121 456.127 166.042 460.733 Q162.987 465.316 157.177 465.316 Q151.366 465.316 148.288 460.733 Q145.232 456.127 145.232 447.4 Q145.232 438.65 148.288 434.066 Q151.366 429.46 157.177 429.46 Z" fill="#000000" fill-rule="nonzero" fill-opacity="1" /><path clip-path="url(#clip740)" d="M187.338 433.164 Q183.727 433.164 181.899 436.728 Q180.093 440.27 180.093 447.4 Q180.093 454.506 181.899 458.071 Q183.727 461.613 187.338 461.613 Q190.973 461.613 192.778 458.071 Q194.607 454.506 194.607 447.4 Q194.607 440.27 192.778 436.728 Q190.973 433.164 187.338 433.164 M187.338 429.46 Q193.149 429.46 196.204 434.066 Q199.283 438.65 199.283 447.4 Q199.283 456.127 196.204 460.733 Q193.149 465.316 187.338 465.316 Q181.528 465.316 178.45 460.733 Q175.394 456.127 175.394 447.4 Q175.394 438.65 178.45 434.066 Q181.528 429.46 187.338 429.46 Z" fill="#000000" fill-rule="nonzero" fill-opacity="1" /><path clip-path="url(#clip740)" d="M217.5 433.164 Q213.889 433.164 212.061 436.728 Q210.255 440.27 210.255 447.4 Q210.255 454.506 212.061 458.071 Q213.889 461.613 217.5 461.613 Q221.135 461.613 222.94 458.071 Q224.769 454.506 224.769 447.4 Q224.769 440.27 222.94 436.728 Q221.135 433.164 217.5 433.164 M217.5 429.46 Q223.31 429.46 226.366 434.066 Q229.445 438.65 229.445 447.4 Q229.445 456.127 226.366 460.733 Q223.31 465.316 217.5 465.316 Q211.69 465.316 208.612 460.733 Q205.556 456.127 205.556 447.4 Q205.556 438.65 208.612 434.066 Q211.69 429.46 217.5 429.46 Z" fill="#000000" fill-rule="nonzero" fill-opacity="1" /><path clip-path="url(#clip740)" d="M121.043 693.462 L137.362 693.462 L137.362 697.397 L115.418 697.397 L115.418 693.462 Q118.08 690.707 122.663 686.077 Q127.269 681.425 128.45 680.082 Q130.695 677.559 131.575 675.823 Q132.478 674.064 132.478 672.374 Q132.478 669.619 130.533 667.883 Q128.612 666.147 125.51 666.147 Q123.311 666.147 120.857 666.911 Q118.427 667.675 115.649 669.226 L115.649 664.503 Q118.473 663.369 120.927 662.79 Q123.38 662.212 125.418 662.212 Q130.788 662.212 133.982 664.897 Q137.177 667.582 137.177 672.073 Q137.177 674.202 136.367 676.124 Q135.579 678.022 133.473 680.614 Q132.894 681.286 129.792 684.503 Q126.691 687.698 121.043 693.462 Z" fill="#000000" fill-rule="nonzero" fill-opacity="1" /><path clip-path="url(#clip740)" d="M157.177 665.915 Q153.566 665.915 151.737 669.48 Q149.931 673.022 149.931 680.151 Q149.931 687.258 151.737 690.823 Q153.566 694.364 157.177 694.364 Q160.811 694.364 162.616 690.823 Q164.445 687.258 164.445 680.151 Q164.445 673.022 162.616 669.48 Q160.811 665.915 157.177 665.915 M157.177 662.212 Q162.987 662.212 166.042 666.818 Q169.121 671.402 169.121 680.151 Q169.121 688.878 166.042 693.485 Q162.987 698.068 157.177 698.068 Q151.366 698.068 148.288 693.485 Q145.232 688.878 145.232 680.151 Q145.232 671.402 148.288 666.818 Q151.366 662.212 157.177 662.212 Z" fill="#000000" fill-rule="nonzero" fill-opacity="1" /><path clip-path="url(#clip740)" d="M187.338 665.915 Q183.727 665.915 181.899 669.48 Q180.093 673.022 180.093 680.151 Q180.093 687.258 181.899 690.823 Q183.727 694.364 187.338 694.364 Q190.973 694.364 192.778 690.823 Q194.607 687.258 194.607 680.151 Q194.607 673.022 192.778 669.48 Q190.973 665.915 187.338 665.915 M187.338 662.212 Q193.149 662.212 196.204 666.818 Q199.283 671.402 199.283 680.151 Q199.283 688.878 196.204 693.485 Q193.149 698.068 187.338 698.068 Q181.528 698.068 178.45 693.485 Q175.394 688.878 175.394 680.151 Q175.394 671.402 178.45 666.818 Q181.528 662.212 187.338 662.212 Z" fill="#000000" fill-rule="nonzero" fill-opacity="1" /><path clip-path="url(#clip740)" d="M217.5 665.915 Q213.889 665.915 212.061 669.48 Q210.255 673.022 210.255 680.151 Q210.255 687.258 212.061 690.823 Q213.889 694.364 217.5 694.364 Q221.135 694.364 222.94 690.823 Q224.769 687.258 224.769 680.151 Q224.769 673.022 222.94 669.48 Q221.135 665.915 217.5 665.915 M217.5 662.212 Q223.31 662.212 226.366 666.818 Q229.445 671.402 229.445 680.151 Q229.445 688.878 226.366 693.485 Q223.31 698.068 217.5 698.068 Q211.69 698.068 208.612 693.485 Q205.556 688.878 205.556 680.151 Q205.556 671.402 208.612 666.818 Q211.69 662.212 217.5 662.212 Z" fill="#000000" fill-rule="nonzero" fill-opacity="1" /><path clip-path="url(#clip740)" d="M131.181 911.514 Q134.538 912.232 136.413 914.5 Q138.311 916.769 138.311 920.102 Q138.311 925.218 134.792 928.019 Q131.274 930.82 124.793 930.82 Q122.617 930.82 120.302 930.38 Q118.01 929.963 115.556 929.107 L115.556 924.593 Q117.501 925.727 119.816 926.306 Q122.13 926.885 124.654 926.885 Q129.052 926.885 131.343 925.149 Q133.658 923.412 133.658 920.102 Q133.658 917.047 131.505 915.334 Q129.376 913.598 125.556 913.598 L121.529 913.598 L121.529 909.755 L125.742 909.755 Q129.191 909.755 131.019 908.389 Q132.848 907.001 132.848 904.408 Q132.848 901.746 130.95 900.334 Q129.075 898.899 125.556 898.899 Q123.635 898.899 121.436 899.315 Q119.237 899.732 116.598 900.612 L116.598 896.445 Q119.26 895.704 121.575 895.334 Q123.913 894.964 125.973 894.964 Q131.297 894.964 134.399 897.394 Q137.501 899.801 137.501 903.922 Q137.501 906.792 135.857 908.783 Q134.214 910.75 131.181 911.514 Z" fill="#000000" fill-rule="nonzero" fill-opacity="1" /><path clip-path="url(#clip740)" d="M157.177 898.667 Q153.566 898.667 151.737 902.232 Q149.931 905.774 149.931 912.903 Q149.931 920.01 151.737 923.574 Q153.566 927.116 157.177 927.116 Q160.811 927.116 162.616 923.574 Q164.445 920.01 164.445 912.903 Q164.445 905.774 162.616 902.232 Q160.811 898.667 157.177 898.667 M157.177 894.964 Q162.987 894.964 166.042 899.57 Q169.121 904.153 169.121 912.903 Q169.121 921.63 166.042 926.237 Q162.987 930.82 157.177 930.82 Q151.366 930.82 148.288 926.237 Q145.232 921.63 145.232 912.903 Q145.232 904.153 148.288 899.57 Q151.366 894.964 157.177 894.964 Z" fill="#000000" fill-rule="nonzero" fill-opacity="1" /><path clip-path="url(#clip740)" d="M187.338 898.667 Q183.727 898.667 181.899 902.232 Q180.093 905.774 180.093 912.903 Q180.093 920.01 181.899 923.574 Q183.727 927.116 187.338 927.116 Q190.973 927.116 192.778 923.574 Q194.607 920.01 194.607 912.903 Q194.607 905.774 192.778 902.232 Q190.973 898.667 187.338 898.667 M187.338 894.964 Q193.149 894.964 196.204 899.57 Q199.283 904.153 199.283 912.903 Q199.283 921.63 196.204 926.237 Q193.149 930.82 187.338 930.82 Q181.528 930.82 178.45 926.237 Q175.394 921.63 175.394 912.903 Q175.394 904.153 178.45 899.57 Q181.528 894.964 187.338 894.964 Z" fill="#000000" fill-rule="nonzero" fill-opacity="1" /><path clip-path="url(#clip740)" d="M217.5 898.667 Q213.889 898.667 212.061 902.232 Q210.255 905.774 210.255 912.903 Q210.255 920.01 212.061 923.574 Q213.889 927.116 217.5 927.116 Q221.135 927.116 222.94 923.574 Q224.769 920.01 224.769 912.903 Q224.769 905.774 222.94 902.232 Q221.135 898.667 217.5 898.667 M217.5 894.964 Q223.31 894.964 226.366 899.57 Q229.445 904.153 229.445 912.903 Q229.445 921.63 226.366 926.237 Q223.31 930.82 217.5 930.82 Q211.69 930.82 208.612 926.237 Q205.556 921.63 205.556 912.903 Q205.556 904.153 208.612 899.57 Q211.69 894.964 217.5 894.964 Z" fill="#000000" fill-rule="nonzero" fill-opacity="1" /><path clip-path="url(#clip740)" d="M129.862 1132.41 L118.056 1150.86 L129.862 1150.86 L129.862 1132.41 M128.635 1128.34 L134.515 1128.34 L134.515 1150.86 L139.445 1150.86 L139.445 1154.75 L134.515 1154.75 L134.515 1162.9 L129.862 1162.9 L129.862 1154.75 L114.26 1154.75 L114.26 1150.24 L128.635 1128.34 Z" fill="#000000" fill-rule="nonzero" fill-opacity="1" /><path clip-path="url(#clip740)" d="M157.177 1131.42 Q153.566 1131.42 151.737 1134.98 Q149.931 1138.53 149.931 1145.66 Q149.931 1152.76 151.737 1156.33 Q153.566 1159.87 157.177 1159.87 Q160.811 1159.87 162.616 1156.33 Q164.445 1152.76 164.445 1145.66 Q164.445 1138.53 162.616 1134.98 Q160.811 1131.42 157.177 1131.42 M157.177 1127.72 Q162.987 1127.72 166.042 1132.32 Q169.121 1136.91 169.121 1145.66 Q169.121 1154.38 166.042 1158.99 Q162.987 1163.57 157.177 1163.57 Q151.366 1163.57 148.288 1158.99 Q145.232 1154.38 145.232 1145.66 Q145.232 1136.91 148.288 1132.32 Q151.366 1127.72 157.177 1127.72 Z" fill="#000000" fill-rule="nonzero" fill-opacity="1" /><path clip-path="url(#clip740)" d="M187.338 1131.42 Q183.727 1131.42 181.899 1134.98 Q180.093 1138.53 180.093 1145.66 Q180.093 1152.76 181.899 1156.33 Q183.727 1159.87 187.338 1159.87 Q190.973 1159.87 192.778 1156.33 Q194.607 1152.76 194.607 1145.66 Q194.607 1138.53 192.778 1134.98 Q190.973 1131.42 187.338 1131.42 M187.338 1127.72 Q193.149 1127.72 196.204 1132.32 Q199.283 1136.91 199.283 1145.66 Q199.283 1154.38 196.204 1158.99 Q193.149 1163.57 187.338 1163.57 Q181.528 1163.57 178.45 1158.99 Q175.394 1154.38 175.394 1145.66 Q175.394 1136.91 178.45 1132.32 Q181.528 1127.72 187.338 1127.72 Z" fill="#000000" fill-rule="nonzero" fill-opacity="1" /><path clip-path="url(#clip740)" d="M217.5 1131.42 Q213.889 1131.42 212.061 1134.98 Q210.255 1138.53 210.255 1145.66 Q210.255 1152.76 212.061 1156.33 Q213.889 1159.87 217.5 1159.87 Q221.135 1159.87 222.94 1156.33 Q224.769 1152.76 224.769 1145.66 Q224.769 1138.53 222.94 1134.98 Q221.135 1131.42 217.5 1131.42 M217.5 1127.72 Q223.31 1127.72 226.366 1132.32 Q229.445 1136.91 229.445 1145.66 Q229.445 1154.38 226.366 1158.99 Q223.31 1163.57 217.5 1163.57 Q211.69 1163.57 208.612 1158.99 Q205.556 1154.38 205.556 1145.66 Q205.556 1136.91 208.612 1132.32 Q211.69 1127.72 217.5 1127.72 Z" fill="#000000" fill-rule="nonzero" fill-opacity="1" /><path clip-path="url(#clip740)" d="M117.061 1361.09 L135.417 1361.09 L135.417 1365.03 L121.343 1365.03 L121.343 1373.5 Q122.362 1373.15 123.38 1372.99 Q124.399 1372.8 125.418 1372.8 Q131.205 1372.8 134.584 1375.98 Q137.964 1379.15 137.964 1384.56 Q137.964 1390.14 134.492 1393.24 Q131.019 1396.32 124.7 1396.32 Q122.524 1396.32 120.255 1395.95 Q118.01 1395.58 115.603 1394.84 L115.603 1390.14 Q117.686 1391.28 119.908 1391.83 Q122.13 1392.39 124.607 1392.39 Q128.612 1392.39 130.95 1390.28 Q133.288 1388.18 133.288 1384.56 Q133.288 1380.95 130.95 1378.85 Q128.612 1376.74 124.607 1376.74 Q122.732 1376.74 120.857 1377.16 Q119.006 1377.57 117.061 1378.45 L117.061 1361.09 Z" fill="#000000" fill-rule="nonzero" fill-opacity="1" /><path clip-path="url(#clip740)" d="M157.177 1364.17 Q153.566 1364.17 151.737 1367.74 Q149.931 1371.28 149.931 1378.41 Q149.931 1385.51 151.737 1389.08 Q153.566 1392.62 157.177 1392.62 Q160.811 1392.62 162.616 1389.08 Q164.445 1385.51 164.445 1378.41 Q164.445 1371.28 162.616 1367.74 Q160.811 1364.17 157.177 1364.17 M157.177 1360.47 Q162.987 1360.47 166.042 1365.07 Q169.121 1369.66 169.121 1378.41 Q169.121 1387.13 166.042 1391.74 Q162.987 1396.32 157.177 1396.32 Q151.366 1396.32 148.288 1391.74 Q145.232 1387.13 145.232 1378.41 Q145.232 1369.66 148.288 1365.07 Q151.366 1360.47 157.177 1360.47 Z" fill="#000000" fill-rule="nonzero" fill-opacity="1" /><path clip-path="url(#clip740)" d="M187.338 1364.17 Q183.727 1364.17 181.899 1367.74 Q180.093 1371.28 180.093 1378.41 Q180.093 1385.51 181.899 1389.08 Q183.727 1392.62 187.338 1392.62 Q190.973 1392.62 192.778 1389.08 Q194.607 1385.51 194.607 1378.41 Q194.607 1371.28 192.778 1367.74 Q190.973 1364.17 187.338 1364.17 M187.338 1360.47 Q193.149 1360.47 196.204 1365.07 Q199.283 1369.66 199.283 1378.41 Q199.283 1387.13 196.204 1391.74 Q193.149 1396.32 187.338 1396.32 Q181.528 1396.32 178.45 1391.74 Q175.394 1387.13 175.394 1378.41 Q175.394 1369.66 178.45 1365.07 Q181.528 1360.47 187.338 1360.47 Z" fill="#000000" fill-rule="nonzero" fill-opacity="1" /><path clip-path="url(#clip740)" d="M217.5 1364.17 Q213.889 1364.17 212.061 1367.74 Q210.255 1371.28 210.255 1378.41 Q210.255 1385.51 212.061 1389.08 Q213.889 1392.62 217.5 1392.62 Q221.135 1392.62 222.94 1389.08 Q224.769 1385.51 224.769 1378.41 Q224.769 1371.28 222.94 1367.74 Q221.135 1364.17 217.5 1364.17 M217.5 1360.47 Q223.31 1360.47 226.366 1365.07 Q229.445 1369.66 229.445 1378.41 Q229.445 1387.13 226.366 1391.74 Q223.31 1396.32 217.5 1396.32 Q211.69 1396.32 208.612 1391.74 Q205.556 1387.13 205.556 1378.41 Q205.556 1369.66 208.612 1365.07 Q211.69 1360.47 217.5 1360.47 Z" fill="#000000" fill-rule="nonzero" fill-opacity="1" /><path clip-path="url(#clip740)" d="M21.7677 1019.17 L58.7206 1019.17 L58.7206 1011.41 Q58.7206 1001.57 54.2646 997.02 Q49.8086 992.436 40.1964 992.436 Q30.6479 992.436 26.2237 997.02 Q21.7677 1001.57 21.7677 1011.41 L21.7677 1019.17 M16.4842 1025.6 L16.4842 1012.39 Q16.4842 998.579 22.2451 992.118 Q27.9743 985.657 40.1964 985.657 Q52.4822 985.657 58.2432 992.15 Q64.0042 998.643 64.0042 1012.39 L64.0042 1025.6 L16.4842 1025.6 Z" fill="#000000" fill-rule="nonzero" fill-opacity="1" /><path clip-path="url(#clip740)" d="M44.7161 945.171 L47.5806 945.171 L47.5806 972.098 Q53.6281 971.716 56.8109 968.469 Q59.9619 965.191 59.9619 959.367 Q59.9619 955.993 59.1344 952.842 Q58.3069 949.659 56.6518 946.54 L62.1899 946.54 Q63.5267 949.691 64.227 953.001 Q64.9272 956.311 64.9272 959.717 Q64.9272 968.247 59.9619 973.244 Q54.9967 978.209 46.5303 978.209 Q37.7774 978.209 32.6531 973.498 Q27.4968 968.756 27.4968 960.735 Q27.4968 953.542 32.1438 949.372 Q36.7589 945.171 44.7161 945.171 M42.9973 951.027 Q38.1912 951.091 35.3266 953.733 Q32.4621 956.343 32.4621 960.671 Q32.4621 965.573 35.2312 968.533 Q38.0002 971.461 43.0292 971.907 L42.9973 951.027 Z" fill="#000000" fill-rule="nonzero" fill-opacity="1" /><path clip-path="url(#clip740)" d="M58.657 929.893 L77.5631 929.893 L77.5631 935.782 L28.3562 935.782 L28.3562 929.893 L33.7671 929.893 Q30.5842 928.047 29.0564 925.246 Q27.4968 922.414 27.4968 918.499 Q27.4968 912.006 32.6531 907.963 Q37.8093 903.889 46.212 903.889 Q54.6147 903.889 59.771 907.963 Q64.9272 912.006 64.9272 918.499 Q64.9272 922.414 63.3994 925.246 Q61.8398 928.047 58.657 929.893 M46.212 909.969 Q39.7508 909.969 36.0905 912.642 Q32.3984 915.284 32.3984 919.931 Q32.3984 924.578 36.0905 927.252 Q39.7508 929.893 46.212 929.893 Q52.6732 929.893 56.3653 927.252 Q60.0256 924.578 60.0256 919.931 Q60.0256 915.284 56.3653 912.642 Q52.6732 909.969 46.212 909.969 Z" fill="#000000" fill-rule="nonzero" fill-opacity="1" /><path clip-path="url(#clip740)" d="M18.2347 888.389 L28.3562 888.389 L28.3562 876.326 L32.9077 876.326 L32.9077 888.389 L52.2594 888.389 Q56.6199 888.389 57.8613 887.211 Q59.1026 886.002 59.1026 882.341 L59.1026 876.326 L64.0042 876.326 L64.0042 882.341 Q64.0042 889.121 61.4897 891.699 Q58.9434 894.277 52.2594 894.277 L32.9077 894.277 L32.9077 898.574 L28.3562 898.574 L28.3562 894.277 L18.2347 894.277 L18.2347 888.389 Z" fill="#000000" fill-rule="nonzero" fill-opacity="1" /><path clip-path="url(#clip740)" d="M42.4881 838.991 L64.0042 838.991 L64.0042 844.847 L42.679 844.847 Q37.6183 844.847 35.1038 846.821 Q32.5894 848.794 32.5894 852.741 Q32.5894 857.483 35.6131 860.221 Q38.6368 862.958 43.8567 862.958 L64.0042 862.958 L64.0042 868.846 L14.479 868.846 L14.479 862.958 L33.8944 862.958 Q30.6797 860.857 29.0883 858.024 Q27.4968 855.16 27.4968 851.436 Q27.4968 845.293 31.3163 842.142 Q35.1038 838.991 42.4881 838.991 Z" fill="#000000" fill-rule="nonzero" fill-opacity="1" /><path clip-path="url(#clip740)" d="M14.5426 792.521 Q21.8632 796.786 29.0246 798.855 Q36.186 800.924 43.5384 800.924 Q50.8908 800.924 58.1159 798.855 Q65.3091 796.755 72.5979 792.521 L72.5979 797.614 Q65.1182 802.388 57.8931 804.775 Q50.668 807.131 43.5384 807.131 Q36.4406 807.131 29.2474 804.775 Q22.0542 802.42 14.5426 797.614 L14.5426 792.521 Z" fill="#000000" fill-rule="nonzero" fill-opacity="1" /><path clip-path="url(#clip740)" d="M35.1993 753.404 Q31.2526 751.208 29.3747 748.152 Q27.4968 745.097 27.4968 740.959 Q27.4968 735.389 31.4117 732.365 Q35.2948 729.342 42.4881 729.342 L64.0042 729.342 L64.0042 735.23 L42.679 735.23 Q37.5546 735.23 35.072 737.044 Q32.5894 738.858 32.5894 742.582 Q32.5894 747.134 35.6131 749.776 Q38.6368 752.417 43.8567 752.417 L64.0042 752.417 L64.0042 758.306 L42.679 758.306 Q37.5228 758.306 35.072 760.12 Q32.5894 761.934 32.5894 765.722 Q32.5894 770.21 35.6449 772.851 Q38.6686 775.493 43.8567 775.493 L64.0042 775.493 L64.0042 781.381 L28.3562 781.381 L28.3562 775.493 L33.8944 775.493 Q30.616 773.488 29.0564 770.687 Q27.4968 767.886 27.4968 764.035 Q27.4968 760.152 29.4702 757.446 Q31.4436 754.709 35.1993 753.404 Z" fill="#000000" fill-rule="nonzero" fill-opacity="1" /><path clip-path="url(#clip740)" d="M14.5426 718.584 L14.5426 713.491 Q22.0542 708.717 29.2474 706.362 Q36.4406 703.974 43.5384 703.974 Q50.668 703.974 57.8931 706.362 Q65.1182 708.717 72.5979 713.491 L72.5979 718.584 Q65.3091 714.35 58.1159 712.282 Q50.8908 710.181 43.5384 710.181 Q36.186 710.181 29.0246 712.282 Q21.8632 714.35 14.5426 718.584 Z" fill="#000000" fill-rule="nonzero" fill-opacity="1" /><polyline clip-path="url(#clip742)" style="stroke:#009af9; stroke-linecap:round; stroke-linejoin:round; stroke-width:4; stroke-opacity:1; fill:none" points="324.52,215.762 324.52,218.076 324.52,220.459 331.828,222.979 337.122,225.706 345.017,228.708 356.666,232.054 371.139,235.812 396.54,240.052 424.335,244.841 457.394,250.25 491.323,256.346 522.685,263.198 560.064,270.876 598.326,279.447 633.939,288.981 680.692,299.547 732.957,311.212 806.508,324.047 875.15,338.119 960.443,353.498 1072.87,370.252 1174.19,388.45 1279,408.161 1417.6,429.453 1551.85,452.395 1682.73,477.057 1789.78,503.506 1882.74,531.812 1963.33,562.043 2041.54,594.268 2103.23,628.556 2149.11,664.975 2173.14,703.595 2187.57,744.484 2190.45,787.711 2181.07,833.344 2164.25,881.453 2153.67,932.106 2126.78,985.372 2077.67,1041.32 2024.5,1100.02 1984.84,1161.53 1969.01,1225.94 1970.83,1293.3 2050.71,1363.69 2223.03,1437.17 2293.68,1513.81 "/>
<path clip-path="url(#clip740)" d="M335.022 326.365 L596.183 326.365 L596.183 222.685 L335.022 222.685  Z" fill="#ffffff" fill-rule="evenodd" fill-opacity="1"/>
<polyline clip-path="url(#clip740)" style="stroke:#000000; stroke-linecap:round; stroke-linejoin:round; stroke-width:4; stroke-opacity:1; fill:none" points="335.022,326.365 596.183,326.365 596.183,222.685 335.022,222.685 335.022,326.365 "/>
<polyline clip-path="url(#clip740)" style="stroke:#009af9; stroke-linecap:round; stroke-linejoin:round; stroke-width:4; stroke-opacity:1; fill:none" points="358.214,274.525 497.368,274.525 "/>
<path clip-path="url(#clip740)" d="M534.403 294.212 Q532.598 298.842 530.885 300.254 Q529.172 301.666 526.301 301.666 L522.898 301.666 L522.898 298.101 L525.398 298.101 Q527.158 298.101 528.13 297.268 Q529.102 296.434 530.283 293.332 L531.047 291.388 L520.561 265.879 L525.074 265.879 L533.176 286.157 L541.278 265.879 L545.792 265.879 L534.403 294.212 Z" fill="#000000" fill-rule="nonzero" fill-opacity="1" /><path clip-path="url(#clip740)" d="M553.084 287.87 L560.722 287.87 L560.722 261.504 L552.412 263.171 L552.412 258.911 L560.676 257.245 L565.352 257.245 L565.352 287.87 L572.991 287.87 L572.991 291.805 L553.084 291.805 L553.084 287.87 Z" fill="#000000" fill-rule="nonzero" fill-opacity="1" /></svg>
