<?xml version="1.0" encoding="utf-8"?>
<svg xmlns="http://www.w3.org/2000/svg" xmlns:xlink="http://www.w3.org/1999/xlink" width="600" height="400" viewBox="0 0 2400 1600">
<defs>
  <clipPath id="clip120">
    <rect x="0" y="0" width="2400" height="1600"/>
  </clipPath>
</defs>
<path clip-path="url(#clip120)" d="M0 1600 L2400 1600 L2400 8.88178e-14 L0 8.88178e-14  Z" fill="#ffffff" fill-rule="evenodd" fill-opacity="1"/>
<defs>
  <clipPath id="clip121">
    <rect x="480" y="0" width="1681" height="1600"/>
  </clipPath>
</defs>
<path clip-path="url(#clip120)" d="M265.445 1552.76 L2352.76 1552.76 L2352.76 176.82 L265.445 176.82  Z" fill="#ffffff" fill-rule="evenodd" fill-opacity="1"/>
<defs>
  <clipPath id="clip122">
    <rect x="265" y="176" width="2088" height="1377"/>
  </clipPath>
</defs>
<polyline clip-path="url(#clip122)" style="stroke:#000000; stroke-linecap:round; stroke-linejoin:round; stroke-width:2; stroke-opacity:0.1; fill:none" points="674.753,176.82 674.753,1552.76 "/>
<polyline clip-path="url(#clip122)" style="stroke:#000000; stroke-linecap:round; stroke-linejoin:round; stroke-width:2; stroke-opacity:0.1; fill:none" points="1233.03,176.82 1233.03,1552.76 "/>
<polyline clip-path="url(#clip122)" style="stroke:#000000; stroke-linecap:round; stroke-linejoin:round; stroke-width:2; stroke-opacity:0.1; fill:none" points="1791.3,176.82 1791.3,1552.76 "/>
<polyline clip-path="url(#clip122)" style="stroke:#000000; stroke-linecap:round; stroke-linejoin:round; stroke-width:2; stroke-opacity:0.1; fill:none" points="2349.57,176.82 2349.57,1552.76 "/>
<polyline clip-path="url(#clip120)" style="stroke:#000000; stroke-linecap:round; stroke-linejoin:round; stroke-width:4; stroke-opacity:1; fill:none" points="265.445,176.82 2352.76,176.82 "/>
<polyline clip-path="url(#clip120)" style="stroke:#000000; stroke-linecap:round; stroke-linejoin:round; stroke-width:4; stroke-opacity:1; fill:none" points="674.753,176.82 674.753,195.718 "/>
<polyline clip-path="url(#clip120)" style="stroke:#000000; stroke-linecap:round; stroke-linejoin:round; stroke-width:4; stroke-opacity:1; fill:none" points="1233.03,176.82 1233.03,195.718 "/>
<polyline clip-path="url(#clip120)" style="stroke:#000000; stroke-linecap:round; stroke-linejoin:round; stroke-width:4; stroke-opacity:1; fill:none" points="1791.3,176.82 1791.3,195.718 "/>
<polyline clip-path="url(#clip120)" style="stroke:#000000; stroke-linecap:round; stroke-linejoin:round; stroke-width:4; stroke-opacity:1; fill:none" points="2349.57,176.82 2349.57,195.718 "/>
<path clip-path="url(#clip120)" d="M641.906 145.045 L649.545 145.045 L649.545 118.679 L641.235 120.346 L641.235 116.087 L649.499 114.42 L654.175 114.42 L654.175 145.045 L661.814 145.045 L661.814 148.98 L641.906 148.98 L641.906 145.045 Z" fill="#000000" fill-rule="nonzero" fill-opacity="1" /><path clip-path="url(#clip120)" d="M671.258 143.101 L676.142 143.101 L676.142 148.98 L671.258 148.98 L671.258 143.101 Z" fill="#000000" fill-rule="nonzero" fill-opacity="1" /><path clip-path="url(#clip120)" d="M696.327 117.499 Q692.716 117.499 690.888 121.064 Q689.082 124.605 689.082 131.735 Q689.082 138.841 690.888 142.406 Q692.716 145.948 696.327 145.948 Q699.962 145.948 701.767 142.406 Q703.596 138.841 703.596 131.735 Q703.596 124.605 701.767 121.064 Q699.962 117.499 696.327 117.499 M696.327 113.795 Q702.138 113.795 705.193 118.402 Q708.272 122.985 708.272 131.735 Q708.272 140.462 705.193 145.068 Q702.138 149.651 696.327 149.651 Q690.517 149.651 687.439 145.068 Q684.383 140.462 684.383 131.735 Q684.383 122.985 687.439 118.402 Q690.517 113.795 696.327 113.795 Z" fill="#000000" fill-rule="nonzero" fill-opacity="1" /><path clip-path="url(#clip120)" d="M1200.68 145.045 L1208.31 145.045 L1208.31 118.679 L1200 120.346 L1200 116.087 L1208.27 114.42 L1212.94 114.42 L1212.94 145.045 L1220.58 145.045 L1220.58 148.98 L1200.68 148.98 L1200.68 145.045 Z" fill="#000000" fill-rule="nonzero" fill-opacity="1" /><path clip-path="url(#clip120)" d="M1230.03 143.101 L1234.91 143.101 L1234.91 148.98 L1230.03 148.98 L1230.03 143.101 Z" fill="#000000" fill-rule="nonzero" fill-opacity="1" /><path clip-path="url(#clip120)" d="M1245.14 114.42 L1263.5 114.42 L1263.5 118.355 L1249.43 118.355 L1249.43 126.827 Q1250.44 126.48 1251.46 126.318 Q1252.48 126.133 1253.5 126.133 Q1259.29 126.133 1262.67 129.304 Q1266.05 132.476 1266.05 137.892 Q1266.05 143.471 1262.57 146.573 Q1259.1 149.651 1252.78 149.651 Q1250.61 149.651 1248.34 149.281 Q1246.09 148.911 1243.68 148.17 L1243.68 143.471 Q1245.77 144.605 1247.99 145.161 Q1250.21 145.716 1252.69 145.716 Q1256.69 145.716 1259.03 143.61 Q1261.37 141.503 1261.37 137.892 Q1261.37 134.281 1259.03 132.175 Q1256.69 130.068 1252.69 130.068 Q1250.81 130.068 1248.94 130.485 Q1247.09 130.902 1245.14 131.781 L1245.14 114.42 Z" fill="#000000" fill-rule="nonzero" fill-opacity="1" /><path clip-path="url(#clip120)" d="M1762.54 145.045 L1778.85 145.045 L1778.85 148.98 L1756.91 148.98 L1756.91 145.045 Q1759.57 142.29 1764.16 137.661 Q1768.76 133.008 1769.94 131.665 Q1772.19 129.142 1773.07 127.406 Q1773.97 125.647 1773.97 123.957 Q1773.97 121.203 1772.03 119.466 Q1770.1 117.73 1767 117.73 Q1764.8 117.73 1762.35 118.494 Q1759.92 119.258 1757.14 120.809 L1757.14 116.087 Q1759.97 114.953 1762.42 114.374 Q1764.87 113.795 1766.91 113.795 Q1772.28 113.795 1775.48 116.48 Q1778.67 119.166 1778.67 123.656 Q1778.67 125.786 1777.86 127.707 Q1777.07 129.605 1774.97 132.198 Q1774.39 132.869 1771.29 136.087 Q1768.18 139.281 1762.54 145.045 Z" fill="#000000" fill-rule="nonzero" fill-opacity="1" /><path clip-path="url(#clip120)" d="M1788.67 143.101 L1793.55 143.101 L1793.55 148.98 L1788.67 148.98 L1788.67 143.101 Z" fill="#000000" fill-rule="nonzero" fill-opacity="1" /><path clip-path="url(#clip120)" d="M1813.74 117.499 Q1810.13 117.499 1808.3 121.064 Q1806.49 124.605 1806.49 131.735 Q1806.49 138.841 1808.3 142.406 Q1810.13 145.948 1813.74 145.948 Q1817.37 145.948 1819.18 142.406 Q1821.01 138.841 1821.01 131.735 Q1821.01 124.605 1819.18 121.064 Q1817.37 117.499 1813.74 117.499 M1813.74 113.795 Q1819.55 113.795 1822.6 118.402 Q1825.68 122.985 1825.68 131.735 Q1825.68 140.462 1822.6 145.068 Q1819.55 149.651 1813.74 149.651 Q1807.93 149.651 1804.85 145.068 Q1801.79 140.462 1801.79 131.735 Q1801.79 122.985 1804.85 118.402 Q1807.93 113.795 1813.74 113.795 Z" fill="#000000" fill-rule="nonzero" fill-opacity="1" /><path clip-path="url(#clip120)" d="M2321.3 145.045 L2337.62 145.045 L2337.62 148.98 L2315.68 148.98 L2315.68 145.045 Q2318.34 142.29 2322.93 137.661 Q2327.53 133.008 2328.71 131.665 Q2330.96 129.142 2331.84 127.406 Q2332.74 125.647 2332.74 123.957 Q2332.74 121.203 2330.8 119.466 Q2328.87 117.73 2325.77 117.73 Q2323.57 117.73 2321.12 118.494 Q2318.69 119.258 2315.91 120.809 L2315.91 116.087 Q2318.74 114.953 2321.19 114.374 Q2323.64 113.795 2325.68 113.795 Q2331.05 113.795 2334.24 116.48 Q2337.44 119.166 2337.44 123.656 Q2337.44 125.786 2336.63 127.707 Q2335.84 129.605 2333.74 132.198 Q2333.16 132.869 2330.05 136.087 Q2326.95 139.281 2321.3 145.045 Z" fill="#000000" fill-rule="nonzero" fill-opacity="1" /><path clip-path="url(#clip120)" d="M2347.44 143.101 L2352.32 143.101 L2352.32 148.98 L2347.44 148.98 L2347.44 143.101 Z" fill="#000000" fill-rule="nonzero" fill-opacity="1" /><path clip-path="url(#clip120)" d="M2362.55 114.42 L2380.91 114.42 L2380.91 118.355 L2366.84 118.355 L2366.84 126.827 Q2367.86 126.48 2368.87 126.318 Q2369.89 126.133 2370.91 126.133 Q2376.7 126.133 2380.08 129.304 Q2383.46 132.476 2383.46 137.892 Q2383.46 143.471 2379.99 146.573 Q2376.51 149.651 2370.19 149.651 Q2368.02 149.651 2365.75 149.281 Q2363.5 148.911 2361.1 148.17 L2361.1 143.471 Q2363.18 144.605 2365.4 145.161 Q2367.62 145.716 2370.1 145.716 Q2374.11 145.716 2376.44 143.61 Q2378.78 141.503 2378.78 137.892 Q2378.78 134.281 2376.44 132.175 Q2374.11 130.068 2370.1 130.068 Q2368.23 130.068 2366.35 130.485 Q2364.5 130.902 2362.55 131.781 L2362.55 114.42 Z" fill="#000000" fill-rule="nonzero" fill-opacity="1" /><path clip-path="url(#clip120)" d="M1266.2 88.2831 L1266.2 39.0762 L1272.05 39.0762 L1272.05 61.2289 Q1272.05 65.844 1274.25 68.1993 Q1276.44 70.5546 1280.74 70.5546 Q1285.45 70.5546 1287.81 67.881 Q1290.19 65.2074 1290.19 59.8602 L1290.19 39.0762 L1296.05 39.0762 L1296.05 66.5124 Q1296.05 68.4221 1296.59 69.3451 Q1297.16 70.2363 1298.34 70.2363 Q1298.63 70.2363 1299.14 70.0772 Q1299.65 69.8862 1300.54 69.5043 L1300.54 74.2149 Q1299.23 74.947 1298.06 75.2971 Q1296.91 75.6472 1295.8 75.6472 Q1293.6 75.6472 1292.29 74.4059 Q1290.99 73.1646 1290.51 70.6183 Q1288.92 73.1327 1286.6 74.4059 Q1284.31 75.6472 1281.19 75.6472 Q1277.94 75.6472 1275.65 74.4059 Q1273.39 73.1646 1272.05 70.6819 L1272.05 88.2831 L1266.2 88.2831 Z" fill="#000000" fill-rule="nonzero" fill-opacity="1" /><path clip-path="url(#clip120)" d="M1308.53 27.2042 L1318.11 27.2042 L1330.23 59.5419 L1342.42 27.2042 L1352.01 27.2042 L1352.01 74.7242 L1345.73 74.7242 L1345.73 32.997 L1333.48 65.5894 L1327.02 65.5894 L1314.77 32.997 L1314.77 74.7242 L1308.53 74.7242 L1308.53 27.2042 Z" fill="#000000" fill-rule="nonzero" fill-opacity="1" /><polyline clip-path="url(#clip122)" style="stroke:#000000; stroke-linecap:round; stroke-linejoin:round; stroke-width:2; stroke-opacity:0.1; fill:none" points="265.445,211.431 2352.76,211.431 "/>
<polyline clip-path="url(#clip122)" style="stroke:#000000; stroke-linecap:round; stroke-linejoin:round; stroke-width:2; stroke-opacity:0.1; fill:none" points="265.445,451.137 2352.76,451.137 "/>
<polyline clip-path="url(#clip122)" style="stroke:#000000; stroke-linecap:round; stroke-linejoin:round; stroke-width:2; stroke-opacity:0.1; fill:none" points="265.445,690.843 2352.76,690.843 "/>
<polyline clip-path="url(#clip122)" style="stroke:#000000; stroke-linecap:round; stroke-linejoin:round; stroke-width:2; stroke-opacity:0.1; fill:none" points="265.445,930.549 2352.76,930.549 "/>
<polyline clip-path="url(#clip122)" style="stroke:#000000; stroke-linecap:round; stroke-linejoin:round; stroke-width:2; stroke-opacity:0.1; fill:none" points="265.445,1170.25 2352.76,1170.25 "/>
<polyline clip-path="url(#clip122)" style="stroke:#000000; stroke-linecap:round; stroke-linejoin:round; stroke-width:2; stroke-opacity:0.1; fill:none" points="265.445,1409.96 2352.76,1409.96 "/>
<polyline clip-path="url(#clip120)" style="stroke:#000000; stroke-linecap:round; stroke-linejoin:round; stroke-width:4; stroke-opacity:1; fill:none" points="265.445,176.82 265.445,1552.76 "/>
<polyline clip-path="url(#clip120)" style="stroke:#000000; stroke-linecap:round; stroke-linejoin:round; stroke-width:4; stroke-opacity:1; fill:none" points="265.445,211.431 284.342,211.431 "/>
<polyline clip-path="url(#clip120)" style="stroke:#000000; stroke-linecap:round; stroke-linejoin:round; stroke-width:4; stroke-opacity:1; fill:none" points="265.445,451.137 284.342,451.137 "/>
<polyline clip-path="url(#clip120)" style="stroke:#000000; stroke-linecap:round; stroke-linejoin:round; stroke-width:4; stroke-opacity:1; fill:none" points="265.445,690.843 284.342,690.843 "/>
<polyline clip-path="url(#clip120)" style="stroke:#000000; stroke-linecap:round; stroke-linejoin:round; stroke-width:4; stroke-opacity:1; fill:none" points="265.445,930.549 284.342,930.549 "/>
<polyline clip-path="url(#clip120)" style="stroke:#000000; stroke-linecap:round; stroke-linejoin:round; stroke-width:4; stroke-opacity:1; fill:none" points="265.445,1170.25 284.342,1170.25 "/>
<polyline clip-path="url(#clip120)" style="stroke:#000000; stroke-linecap:round; stroke-linejoin:round; stroke-width:4; stroke-opacity:1; fill:none" points="265.445,1409.96 284.342,1409.96 "/>
<path clip-path="url(#clip120)" d="M217.5 197.23 Q213.889 197.23 212.061 200.794 Q210.255 204.336 210.255 211.466 Q210.255 218.572 212.061 222.137 Q213.889 225.678 217.5 225.678 Q221.135 225.678 222.94 222.137 Q224.769 218.572 224.769 211.466 Q224.769 204.336 222.94 200.794 Q221.135 197.23 217.5 197.23 M217.5 193.526 Q223.31 193.526 226.366 198.132 Q229.445 202.716 229.445 211.466 Q229.445 220.192 226.366 224.799 Q223.31 229.382 217.5 229.382 Q211.69 229.382 208.612 224.799 Q205.556 220.192 205.556 211.466 Q205.556 202.716 208.612 198.132 Q211.69 193.526 217.5 193.526 Z" fill="#000000" fill-rule="nonzero" fill-opacity="1" /><path clip-path="url(#clip120)" d="M117.825 464.482 L125.464 464.482 L125.464 438.116 L117.154 439.783 L117.154 435.524 L125.418 433.857 L130.093 433.857 L130.093 464.482 L137.732 464.482 L137.732 468.417 L117.825 468.417 L117.825 464.482 Z" fill="#000000" fill-rule="nonzero" fill-opacity="1" /><path clip-path="url(#clip120)" d="M157.177 436.936 Q153.566 436.936 151.737 440.5 Q149.931 444.042 149.931 451.172 Q149.931 458.278 151.737 461.843 Q153.566 465.384 157.177 465.384 Q160.811 465.384 162.616 461.843 Q164.445 458.278 164.445 451.172 Q164.445 444.042 162.616 440.5 Q160.811 436.936 157.177 436.936 M157.177 433.232 Q162.987 433.232 166.042 437.838 Q169.121 442.422 169.121 451.172 Q169.121 459.898 166.042 464.505 Q162.987 469.088 157.177 469.088 Q151.366 469.088 148.288 464.505 Q145.232 459.898 145.232 451.172 Q145.232 442.422 148.288 437.838 Q151.366 433.232 157.177 433.232 Z" fill="#000000" fill-rule="nonzero" fill-opacity="1" /><path clip-path="url(#clip120)" d="M187.338 436.936 Q183.727 436.936 181.899 440.5 Q180.093 444.042 180.093 451.172 Q180.093 458.278 181.899 461.843 Q183.727 465.384 187.338 465.384 Q190.973 465.384 192.778 461.843 Q194.607 458.278 194.607 451.172 Q194.607 444.042 192.778 440.5 Q190.973 436.936 187.338 436.936 M187.338 433.232 Q193.149 433.232 196.204 437.838 Q199.283 442.422 199.283 451.172 Q199.283 459.898 196.204 464.505 Q193.149 469.088 187.338 469.088 Q181.528 469.088 178.45 464.505 Q175.394 459.898 175.394 451.172 Q175.394 442.422 178.45 437.838 Q181.528 433.232 187.338 433.232 Z" fill="#000000" fill-rule="nonzero" fill-opacity="1" /><path clip-path="url(#clip120)" d="M217.5 436.936 Q213.889 436.936 212.061 440.5 Q210.255 444.042 210.255 451.172 Q210.255 458.278 212.061 461.843 Q213.889 465.384 217.5 465.384 Q221.135 465.384 222.94 461.843 Q224.769 458.278 224.769 451.172 Q224.769 444.042 222.94 440.5 Q221.135 436.936 217.5 436.936 M217.5 433.232 Q223.31 433.232 226.366 437.838 Q229.445 442.422 229.445 451.172 Q229.445 459.898 226.366 464.505 Q223.31 469.088 217.5 469.088 Q211.69 469.088 208.612 464.505 Q205.556 459.898 205.556 451.172 Q205.556 442.422 208.612 437.838 Q211.69 433.232 217.5 433.232 Z" fill="#000000" fill-rule="nonzero" fill-opacity="1" /><path clip-path="url(#clip120)" d="M121.043 704.188 L137.362 704.188 L137.362 708.123 L115.418 708.123 L115.418 704.188 Q118.08 701.433 122.663 696.803 Q127.269 692.151 128.45 690.808 Q130.695 688.285 131.575 686.549 Q132.478 684.79 132.478 683.1 Q132.478 680.345 130.533 678.609 Q128.612 676.873 125.51 676.873 Q123.311 676.873 120.857 677.637 Q118.427 678.401 115.649 679.952 L115.649 675.23 Q118.473 674.095 120.927 673.517 Q123.38 672.938 125.418 672.938 Q130.788 672.938 133.982 675.623 Q137.177 678.308 137.177 682.799 Q137.177 684.929 136.367 686.85 Q135.579 688.748 133.473 691.341 Q132.894 692.012 129.792 695.229 Q126.691 698.424 121.043 704.188 Z" fill="#000000" fill-rule="nonzero" fill-opacity="1" /><path clip-path="url(#clip120)" d="M157.177 676.642 Q153.566 676.642 151.737 680.206 Q149.931 683.748 149.931 690.878 Q149.931 697.984 151.737 701.549 Q153.566 705.09 157.177 705.09 Q160.811 705.09 162.616 701.549 Q164.445 697.984 164.445 690.878 Q164.445 683.748 162.616 680.206 Q160.811 676.642 157.177 676.642 M157.177 672.938 Q162.987 672.938 166.042 677.544 Q169.121 682.128 169.121 690.878 Q169.121 699.604 166.042 704.211 Q162.987 708.794 157.177 708.794 Q151.366 708.794 148.288 704.211 Q145.232 699.604 145.232 690.878 Q145.232 682.128 148.288 677.544 Q151.366 672.938 157.177 672.938 Z" fill="#000000" fill-rule="nonzero" fill-opacity="1" /><path clip-path="url(#clip120)" d="M187.338 676.642 Q183.727 676.642 181.899 680.206 Q180.093 683.748 180.093 690.878 Q180.093 697.984 181.899 701.549 Q183.727 705.09 187.338 705.09 Q190.973 705.09 192.778 701.549 Q194.607 697.984 194.607 690.878 Q194.607 683.748 192.778 680.206 Q190.973 676.642 187.338 676.642 M187.338 672.938 Q193.149 672.938 196.204 677.544 Q199.283 682.128 199.283 690.878 Q199.283 699.604 196.204 704.211 Q193.149 708.794 187.338 708.794 Q181.528 708.794 178.45 704.211 Q175.394 699.604 175.394 690.878 Q175.394 682.128 178.45 677.544 Q181.528 672.938 187.338 672.938 Z" fill="#000000" fill-rule="nonzero" fill-opacity="1" /><path clip-path="url(#clip120)" d="M217.5 676.642 Q213.889 676.642 212.061 680.206 Q210.255 683.748 210.255 690.878 Q210.255 697.984 212.061 701.549 Q213.889 705.09 217.5 705.09 Q221.135 705.09 222.94 701.549 Q224.769 697.984 224.769 690.878 Q224.769 683.748 222.94 680.206 Q221.135 676.642 217.5 676.642 M217.5 672.938 Q223.31 672.938 226.366 677.544 Q229.445 682.128 229.445 690.878 Q229.445 699.604 226.366 704.211 Q223.31 708.794 217.5 708.794 Q211.69 708.794 208.612 704.211 Q205.556 699.604 205.556 690.878 Q205.556 682.128 208.612 677.544 Q211.69 672.938 217.5 672.938 Z" fill="#000000" fill-rule="nonzero" fill-opacity="1" /><path clip-path="url(#clip120)" d="M131.181 929.195 Q134.538 929.912 136.413 932.181 Q138.311 934.449 138.311 937.783 Q138.311 942.898 134.792 945.699 Q131.274 948.5 124.793 948.5 Q122.617 948.5 120.302 948.06 Q118.01 947.644 115.556 946.787 L115.556 942.273 Q117.501 943.408 119.816 943.986 Q122.13 944.565 124.654 944.565 Q129.052 944.565 131.343 942.829 Q133.658 941.093 133.658 937.783 Q133.658 934.727 131.505 933.014 Q129.376 931.278 125.556 931.278 L121.529 931.278 L121.529 927.435 L125.742 927.435 Q129.191 927.435 131.019 926.07 Q132.848 924.681 132.848 922.088 Q132.848 919.426 130.95 918.014 Q129.075 916.579 125.556 916.579 Q123.635 916.579 121.436 916.996 Q119.237 917.412 116.598 918.292 L116.598 914.125 Q119.26 913.385 121.575 913.014 Q123.913 912.644 125.973 912.644 Q131.297 912.644 134.399 915.074 Q137.501 917.482 137.501 921.602 Q137.501 924.473 135.857 926.463 Q134.214 928.431 131.181 929.195 Z" fill="#000000" fill-rule="nonzero" fill-opacity="1" /><path clip-path="url(#clip120)" d="M157.177 916.348 Q153.566 916.348 151.737 919.912 Q149.931 923.454 149.931 930.584 Q149.931 937.69 151.737 941.255 Q153.566 944.797 157.177 944.797 Q160.811 944.797 162.616 941.255 Q164.445 937.69 164.445 930.584 Q164.445 923.454 162.616 919.912 Q160.811 916.348 157.177 916.348 M157.177 912.644 Q162.987 912.644 166.042 917.25 Q169.121 921.834 169.121 930.584 Q169.121 939.31 166.042 943.917 Q162.987 948.5 157.177 948.5 Q151.366 948.5 148.288 943.917 Q145.232 939.31 145.232 930.584 Q145.232 921.834 148.288 917.25 Q151.366 912.644 157.177 912.644 Z" fill="#000000" fill-rule="nonzero" fill-opacity="1" /><path clip-path="url(#clip120)" d="M187.338 916.348 Q183.727 916.348 181.899 919.912 Q180.093 923.454 180.093 930.584 Q180.093 937.69 181.899 941.255 Q183.727 944.797 187.338 944.797 Q190.973 944.797 192.778 941.255 Q194.607 937.69 194.607 930.584 Q194.607 923.454 192.778 919.912 Q190.973 916.348 187.338 916.348 M187.338 912.644 Q193.149 912.644 196.204 917.25 Q199.283 921.834 199.283 930.584 Q199.283 939.31 196.204 943.917 Q193.149 948.5 187.338 948.5 Q181.528 948.5 178.45 943.917 Q175.394 939.31 175.394 930.584 Q175.394 921.834 178.45 917.25 Q181.528 912.644 187.338 912.644 Z" fill="#000000" fill-rule="nonzero" fill-opacity="1" /><path clip-path="url(#clip120)" d="M217.5 916.348 Q213.889 916.348 212.061 919.912 Q210.255 923.454 210.255 930.584 Q210.255 937.69 212.061 941.255 Q213.889 944.797 217.5 944.797 Q221.135 944.797 222.94 941.255 Q224.769 937.69 224.769 930.584 Q224.769 923.454 222.94 919.912 Q221.135 916.348 217.5 916.348 M217.5 912.644 Q223.31 912.644 226.366 917.25 Q229.445 921.834 229.445 930.584 Q229.445 939.31 226.366 943.917 Q223.31 948.5 217.5 948.5 Q211.69 948.5 208.612 943.917 Q205.556 939.31 205.556 930.584 Q205.556 921.834 208.612 917.25 Q211.69 912.644 217.5 912.644 Z" fill="#000000" fill-rule="nonzero" fill-opacity="1" /><path clip-path="url(#clip120)" d="M129.862 1157.05 L118.056 1175.5 L129.862 1175.5 L129.862 1157.05 M128.635 1152.97 L134.515 1152.97 L134.515 1175.5 L139.445 1175.5 L139.445 1179.39 L134.515 1179.39 L134.515 1187.53 L129.862 1187.53 L129.862 1179.39 L114.26 1179.39 L114.26 1174.87 L128.635 1152.97 Z" fill="#000000" fill-rule="nonzero" fill-opacity="1" /><path clip-path="url(#clip120)" d="M157.177 1156.05 Q153.566 1156.05 151.737 1159.62 Q149.931 1163.16 149.931 1170.29 Q149.931 1177.4 151.737 1180.96 Q153.566 1184.5 157.177 1184.5 Q160.811 1184.5 162.616 1180.96 Q164.445 1177.4 164.445 1170.29 Q164.445 1163.16 162.616 1159.62 Q160.811 1156.05 157.177 1156.05 M157.177 1152.35 Q162.987 1152.35 166.042 1156.96 Q169.121 1161.54 169.121 1170.29 Q169.121 1179.02 166.042 1183.62 Q162.987 1188.21 157.177 1188.21 Q151.366 1188.21 148.288 1183.62 Q145.232 1179.02 145.232 1170.29 Q145.232 1161.54 148.288 1156.96 Q151.366 1152.35 157.177 1152.35 Z" fill="#000000" fill-rule="nonzero" fill-opacity="1" /><path clip-path="url(#clip120)" d="M187.338 1156.05 Q183.727 1156.05 181.899 1159.62 Q180.093 1163.16 180.093 1170.29 Q180.093 1177.4 181.899 1180.96 Q183.727 1184.5 187.338 1184.5 Q190.973 1184.5 192.778 1180.96 Q194.607 1177.4 194.607 1170.29 Q194.607 1163.16 192.778 1159.62 Q190.973 1156.05 187.338 1156.05 M187.338 1152.35 Q193.149 1152.35 196.204 1156.96 Q199.283 1161.54 199.283 1170.29 Q199.283 1179.02 196.204 1183.62 Q193.149 1188.21 187.338 1188.21 Q181.528 1188.21 178.45 1183.62 Q175.394 1179.02 175.394 1170.29 Q175.394 1161.54 178.45 1156.96 Q181.528 1152.35 187.338 1152.35 Z" fill="#000000" fill-rule="nonzero" fill-opacity="1" /><path clip-path="url(#clip120)" d="M217.5 1156.05 Q213.889 1156.05 212.061 1159.62 Q210.255 1163.16 210.255 1170.29 Q210.255 1177.4 212.061 1180.96 Q213.889 1184.5 217.5 1184.5 Q221.135 1184.5 222.94 1180.96 Q224.769 1177.4 224.769 1170.29 Q224.769 1163.16 222.94 1159.62 Q221.135 1156.05 217.5 1156.05 M217.5 1152.35 Q223.31 1152.35 226.366 1156.96 Q229.445 1161.54 229.445 1170.29 Q229.445 1179.02 226.366 1183.62 Q223.31 1188.21 217.5 1188.21 Q211.69 1188.21 208.612 1183.62 Q205.556 1179.02 205.556 1170.29 Q205.556 1161.54 208.612 1156.96 Q211.69 1152.35 217.5 1152.35 Z" fill="#000000" fill-rule="nonzero" fill-opacity="1" /><path clip-path="url(#clip120)" d="M117.061 1392.68 L135.417 1392.68 L135.417 1396.62 L121.343 1396.62 L121.343 1405.09 Q122.362 1404.74 123.38 1404.58 Q124.399 1404.39 125.418 1404.39 Q131.205 1404.39 134.584 1407.57 Q137.964 1410.74 137.964 1416.15 Q137.964 1421.73 134.492 1424.83 Q131.019 1427.91 124.7 1427.91 Q122.524 1427.91 120.255 1427.54 Q118.01 1427.17 115.603 1426.43 L115.603 1421.73 Q117.686 1422.87 119.908 1423.42 Q122.13 1423.98 124.607 1423.98 Q128.612 1423.98 130.95 1421.87 Q133.288 1419.76 133.288 1416.15 Q133.288 1412.54 130.95 1410.44 Q128.612 1408.33 124.607 1408.33 Q122.732 1408.33 120.857 1408.75 Q119.006 1409.16 117.061 1410.04 L117.061 1392.68 Z" fill="#000000" fill-rule="nonzero" fill-opacity="1" /><path clip-path="url(#clip120)" d="M157.177 1395.76 Q153.566 1395.76 151.737 1399.32 Q149.931 1402.87 149.931 1410 Q149.931 1417.1 151.737 1420.67 Q153.566 1424.21 157.177 1424.21 Q160.811 1424.21 162.616 1420.67 Q164.445 1417.1 164.445 1410 Q164.445 1402.87 162.616 1399.32 Q160.811 1395.76 157.177 1395.76 M157.177 1392.06 Q162.987 1392.06 166.042 1396.66 Q169.121 1401.25 169.121 1410 Q169.121 1418.72 166.042 1423.33 Q162.987 1427.91 157.177 1427.91 Q151.366 1427.91 148.288 1423.33 Q145.232 1418.72 145.232 1410 Q145.232 1401.25 148.288 1396.66 Q151.366 1392.06 157.177 1392.06 Z" fill="#000000" fill-rule="nonzero" fill-opacity="1" /><path clip-path="url(#clip120)" d="M187.338 1395.76 Q183.727 1395.76 181.899 1399.32 Q180.093 1402.87 180.093 1410 Q180.093 1417.1 181.899 1420.67 Q183.727 1424.21 187.338 1424.21 Q190.973 1424.21 192.778 1420.67 Q194.607 1417.1 194.607 1410 Q194.607 1402.87 192.778 1399.32 Q190.973 1395.76 187.338 1395.76 M187.338 1392.06 Q193.149 1392.06 196.204 1396.66 Q199.283 1401.25 199.283 1410 Q199.283 1418.72 196.204 1423.33 Q193.149 1427.91 187.338 1427.91 Q181.528 1427.91 178.45 1423.33 Q175.394 1418.72 175.394 1410 Q175.394 1401.25 178.45 1396.66 Q181.528 1392.06 187.338 1392.06 Z" fill="#000000" fill-rule="nonzero" fill-opacity="1" /><path clip-path="url(#clip120)" d="M217.5 1395.76 Q213.889 1395.76 212.061 1399.32 Q210.255 1402.87 210.255 1410 Q210.255 1417.1 212.061 1420.67 Q213.889 1424.21 217.5 1424.21 Q221.135 1424.21 222.94 1420.67 Q224.769 1417.1 224.769 1410 Q224.769 1402.87 222.94 1399.32 Q221.135 1395.76 217.5 1395.76 M217.5 1392.06 Q223.31 1392.06 226.366 1396.66 Q229.445 1401.25 229.445 1410 Q229.445 1418.72 226.366 1423.33 Q223.31 1427.91 217.5 1427.91 Q211.69 1427.91 208.612 1423.33 Q205.556 1418.72 205.556 1410 Q205.556 1401.25 208.612 1396.66 Q211.69 1392.06 217.5 1392.06 Z" fill="#000000" fill-rule="nonzero" fill-opacity="1" /><path clip-path="url(#clip120)" d="M21.7677 1019.17 L58.7206 1019.17 L58.7206 1011.41 Q58.7206 1001.57 54.2646 997.02 Q49.8086 992.436 40.1964 992.436 Q30.6479 992.436 26.2237 997.02 Q21.7677 1001.57 21.7677 1011.41 L21.7677 1019.17 M16.4842 1025.6 L16.4842 1012.39 Q16.4842 998.579 22.2451 992.118 Q27.9743 985.657 40.1964 985.657 Q52.4822 985.657 58.2432 992.15 Q64.0042 998.643 64.0042 1012.39 L64.0042 1025.6 L16.4842 1025.6 Z" fill="#000000" fill-rule="nonzero" fill-opacity="1" /><path clip-path="url(#clip120)" d="M44.7161 945.171 L47.5806 945.171 L47.5806 972.098 Q53.6281 971.716 56.8109 968.469 Q59.9619 965.191 59.9619 959.367 Q59.9619 955.993 59.1344 952.842 Q58.3069 949.659 56.6518 946.54 L62.1899 946.54 Q63.5267 949.691 64.227 953.001 Q64.9272 956.311 64.9272 959.717 Q64.9272 968.247 59.9619 973.244 Q54.9967 978.209 46.5303 978.209 Q37.7774 978.209 32.6531 973.498 Q27.4968 968.756 27.4968 960.735 Q27.4968 953.542 32.1438 949.372 Q36.7589 945.171 44.7161 945.171 M42.9973 951.027 Q38.1912 951.091 35.3266 953.733 Q32.4621 956.343 32.4621 960.671 Q32.4621 965.573 35.2312 968.533 Q38.0002 971.461 43.0292 971.907 L42.9973 951.027 Z" fill="#000000" fill-rule="nonzero" fill-opacity="1" /><path clip-path="url(#clip120)" d="M58.657 929.893 L77.5631 929.893 L77.5631 935.782 L28.3562 935.782 L28.3562 929.893 L33.7671 929.893 Q30.5842 928.047 29.0564 925.246 Q27.4968 922.414 27.4968 918.499 Q27.4968 912.006 32.6531 907.963 Q37.8093 903.889 46.212 903.889 Q54.6147 903.889 59.771 907.963 Q64.9272 912.006 64.9272 918.499 Q64.9272 922.414 63.3994 925.246 Q61.8398 928.047 58.657 929.893 M46.212 909.969 Q39.7508 909.969 36.0905 912.642 Q32.3984 915.284 32.3984 919.931 Q32.3984 924.578 36.0905 927.252 Q39.7508 929.893 46.212 929.893 Q52.6732 929.893 56.3653 927.252 Q60.0256 924.578 60.0256 919.931 Q60.0256 915.284 56.3653 912.642 Q52.6732 909.969 46.212 909.969 Z" fill="#000000" fill-rule="nonzero" fill-opacity="1" /><path clip-path="url(#clip120)" d="M18.2347 888.389 L28.3562 888.389 L28.3562 876.326 L32.9077 876.326 L32.9077 888.389 L52.2594 888.389 Q56.6199 888.389 57.8613 887.211 Q59.1026 886.002 59.1026 882.341 L59.1026 876.326 L64.0042 876.326 L64.0042 882.341 Q64.0042 889.121 61.4897 891.699 Q58.9434 894.277 52.2594 894.277 L32.9077 894.277 L32.9077 898.574 L28.3562 898.574 L28.3562 894.277 L18.2347 894.277 L18.2347 888.389 Z" fill="#000000" fill-rule="nonzero" fill-opacity="1" /><path clip-path="url(#clip120)" d="M42.4881 838.991 L64.0042 838.991 L64.0042 844.847 L42.679 844.847 Q37.6183 844.847 35.1038 846.821 Q32.5894 848.794 32.5894 852.741 Q32.5894 857.483 35.6131 860.221 Q38.6368 862.958 43.8567 862.958 L64.0042 862.958 L64.0042 868.846 L14.479 868.846 L14.479 862.958 L33.8944 862.958 Q30.6797 860.857 29.0883 858.024 Q27.4968 855.16 27.4968 851.436 Q27.4968 845.293 31.3163 842.142 Q35.1038 838.991 42.4881 838.991 Z" fill="#000000" fill-rule="nonzero" fill-opacity="1" /><path clip-path="url(#clip120)" d="M14.5426 792.521 Q21.8632 796.786 29.0246 798.855 Q36.186 800.924 43.5384 800.924 Q50.8908 800.924 58.1159 798.855 Q65.3091 796.755 72.5979 792.521 L72.5979 797.614 Q65.1182 802.388 57.8931 804.775 Q50.668 807.131 43.5384 807.131 Q36.4406 807.131 29.2474 804.775 Q22.0542 802.42 14.5426 797.614 L14.5426 792.521 Z" fill="#000000" fill-rule="nonzero" fill-opacity="1" /><path clip-path="url(#clip120)" d="M35.1993 753.404 Q31.2526 751.208 29.3747 748.152 Q27.4968 745.097 27.4968 740.959 Q27.4968 735.389 31.4117 732.365 Q35.2948 729.342 42.4881 729.342 L64.0042 729.342 L64.0042 735.23 L42.679 735.23 Q37.5546 735.23 35.072 737.044 Q32.5894 738.858 32.5894 742.582 Q32.5894 747.134 35.6131 749.776 Q38.6368 752.417 43.8567 752.417 L64.0042 752.417 L64.0042 758.306 L42.679 758.306 Q37.5228 758.306 35.072 760.12 Q32.5894 761.934 32.5894 765.722 Q32.5894 770.21 35.6449 772.851 Q38.6686 775.493 43.8567 775.493 L64.0042 775.493 L64.0042 781.381 L28.3562 781.381 L28.3562 775.493 L33.8944 775.493 Q30.616 773.488 29.0564 770.687 Q27.4968 767.886 27.4968 764.035 Q27.4968 760.152 29.4702 757.446 Q31.4436 754.709 35.1993 753.404 Z" fill="#000000" fill-rule="nonzero" fill-opacity="1" /><path clip-path="url(#clip120)" d="M14.5426 718.584 L14.5426 713.491 Q22.0542 708.717 29.2474 706.362 Q36.4406 703.974 43.5384 703.974 Q50.668 703.974 57.8931 706.362 Q65.1182 708.717 72.5979 713.491 L72.5979 718.584 Q65.3091 714.35 58.1159 712.282 Q50.8908 710.181 43.5384 710.181 Q36.186 710.181 29.0246 712.282 Q21.8632 714.35 14.5426 718.584 Z" fill="#000000" fill-rule="nonzero" fill-opacity="1" /><polyline clip-path="url(#clip122)" style="stroke:#009af9; stroke-linecap:round; stroke-linejoin:round; stroke-width:4; stroke-opacity:1; fill:none" points="324.52,215.762 335.832,224.559 670.359,233.897 890.776,244.319 1099.54,256.364 1281.97,270.575 1479.87,287.492 1692.96,307.658 1882.24,331.613 2037.18,359.9 2184.14,393.058 2267.84,431.63 2293.68,476.157 2247.05,527.181 2160.67,585.242 2065.41,650.882 2007.96,724.643 1941.28,807.065 1928.96,898.691 1914.18,1000.06 1920.72,1111.72 1935.96,1234.2 1943.74,1368.05 1946.59,1513.81 "/>
<path clip-path="url(#clip120)" d="M335.022 326.365 L596.183 326.365 L596.183 222.685 L335.022 222.685  Z" fill="#ffffff" fill-rule="evenodd" fill-opacity="1"/>
<polyline clip-path="url(#clip120)" style="stroke:#000000; stroke-linecap:round; stroke-linejoin:round; stroke-width:4; stroke-opacity:1; fill:none" points="335.022,326.365 596.183,326.365 596.183,222.685 335.022,222.685 335.022,326.365 "/>
<polyline clip-path="url(#clip120)" style="stroke:#009af9; stroke-linecap:round; stroke-linejoin:round; stroke-width:4; stroke-opacity:1; fill:none" points="358.214,274.525 497.368,274.525 "/>
<path clip-path="url(#clip120)" d="M534.403 294.212 Q532.598 298.842 530.885 300.254 Q529.172 301.666 526.301 301.666 L522.898 301.666 L522.898 298.101 L525.398 298.101 Q527.158 298.101 528.13 297.268 Q529.102 296.434 530.283 293.332 L531.047 291.388 L520.561 265.879 L525.074 265.879 L533.176 286.157 L541.278 265.879 L545.792 265.879 L534.403 294.212 Z" fill="#000000" fill-rule="nonzero" fill-opacity="1" /><path clip-path="url(#clip120)" d="M553.084 287.87 L560.722 287.87 L560.722 261.504 L552.412 263.171 L552.412 258.911 L560.676 257.245 L565.352 257.245 L565.352 287.87 L572.991 287.87 L572.991 291.805 L553.084 291.805 L553.084 287.87 Z" fill="#000000" fill-rule="nonzero" fill-opacity="1" /></svg>
